# xmcd
# 
# Track frame offsets:
#     182
#     17752
#     34375
#     57035
#     84665
#     104580
#     123512
#     140850
#     164975
#     177105
#     199460
#     220887
#     247250
# 
# Disc length: 3504
# 
# Revision: 8
# Processed by: cddbd v1.5.2PL0 Copyright (c) Steve Scherf et al.
# Submitted via: fre:ac v1.0.27
# 
DISCID=d00dae0d
DTITLE=Womack and Womack - Greatest Hits
DYEAR=1996
DGENRE=Soul
TTITLE0=Teardrops Remix)
TTITLE1=Celebrate The World
TTITLE2=Slave (Just For Love)
TTITLE3=Conscious Of My Conscience
TTITLE4=Good Man Monologue
TTITLE5=MPB (Missing Person Bureau) (Remix)
TTITLE6=Life's Just A Ball Game (Radio Remix)
TTITLE7=Friends (So Called)
TTITLE8=I Am Love
TTITLE9=Love Wars (Live Version)
TTITLE10=Take Me Home Country Roads (Live Version)
TTITLE11=Family (Live Version)
TTITLE12=Rejoice (Live Version)
EXTD=Womack and Womack - Greatest Hits YEAR: 1993
EXTT0=
EXTT1=
EXTT2=
EXTT3=
EXTT4=
EXTT5=
EXTT6=
EXTT7=
EXTT8=
EXTT9=
EXTT10=
EXTT11=
EXTT12=
PLAYORDER=
